<svg width="160" height="123" viewBox="0 0 160 123" fill="none" xmlns="http://www.w3.org/2000/svg">
<g clip-path="url(#clip0_2_171)">
<path d="M157.288 106.71C156.615 101.325 153.264 96.0196 148.107 94.2672C150.141 99.8097 150.14 105.89 148.106 111.432C147.313 113.567 146.209 115.859 146.954 118.01C147.418 119.349 148.552 120.373 149.821 121.013C151.089 121.654 152.496 121.959 153.886 122.258L154.16 122.483C156.366 117.522 157.96 112.095 157.288 106.71Z" fill="#F0F0F0"/>
<path d="M148.056 94.369C151.059 97.72 152.925 101.928 153.39 106.396C153.507 107.356 153.472 108.328 153.285 109.277C153.073 110.196 152.618 111.041 151.967 111.725C151.373 112.375 150.689 112.972 150.264 113.754C150.053 114.158 149.929 114.602 149.902 115.056C149.875 115.511 149.944 115.966 150.106 116.392C150.481 117.464 151.221 118.338 151.974 119.168C152.81 120.089 153.694 121.032 154.049 122.253C154.092 122.401 154.32 122.326 154.277 122.178C153.659 120.054 151.588 118.847 150.601 116.934C150.14 116.041 149.946 115.005 150.378 114.062C150.756 113.238 151.46 112.622 152.068 111.969C152.712 111.311 153.186 110.506 153.446 109.624C153.681 108.687 153.754 107.718 153.662 106.757C153.49 104.59 152.977 102.464 152.142 100.457C151.201 98.1599 149.873 96.0403 148.215 94.1896C148.112 94.0751 147.954 94.2552 148.056 94.369Z" fill="white"/>
<path d="M153.326 104.948C154.068 104.769 154.722 104.333 155.171 103.717C155.619 103.102 155.834 102.348 155.776 101.59C155.764 101.436 155.524 101.448 155.536 101.602C155.592 102.308 155.391 103.01 154.972 103.582C154.553 104.154 153.942 104.558 153.25 104.721C153.1 104.757 153.176 104.984 153.326 104.948Z" fill="white"/>
<path d="M152.312 111.435C150.972 110.638 149.982 109.367 149.541 107.876C149.497 107.728 149.269 107.803 149.313 107.951C149.775 109.502 150.807 110.822 152.204 111.649C152.337 111.727 152.444 111.513 152.312 111.435Z" fill="white"/>
<path d="M150.978 98.3865C150.706 98.5155 150.405 98.575 150.104 98.5598C149.802 98.5445 149.509 98.455 149.251 98.2992C149.119 98.2188 149.012 98.433 149.143 98.5128C149.429 98.6836 149.753 98.7821 150.086 98.7997C150.419 98.8173 150.751 98.7534 151.054 98.6136C151.083 98.6028 151.108 98.5811 151.122 98.5531C151.136 98.525 151.139 98.4926 151.13 98.4625C151.12 98.4325 151.098 98.4077 151.07 98.3934C151.041 98.3792 151.008 98.3767 150.978 98.3865Z" fill="white"/>
<path d="M132.388 103.885C132.469 103.938 132.55 103.99 132.631 104.045C133.717 104.756 134.743 105.554 135.699 106.43C135.774 106.497 135.849 106.566 135.922 106.634C138.204 108.771 140.067 111.311 141.417 114.125C141.954 115.245 142.404 116.404 142.763 117.593C143.26 119.234 143.667 121.052 144.65 122.394C144.751 122.536 144.861 122.67 144.979 122.798H153.863C153.883 122.788 153.903 122.78 153.923 122.77L154.278 122.786C154.264 122.723 154.248 122.659 154.233 122.596C154.225 122.56 154.215 122.524 154.207 122.487C154.201 122.463 154.195 122.439 154.191 122.417C154.189 122.409 154.187 122.401 154.185 122.394C154.181 122.372 154.175 122.352 154.171 122.332C154.081 121.971 153.99 121.609 153.895 121.248C153.895 121.246 153.895 121.246 153.893 121.244C153.165 118.493 152.2 115.778 150.853 113.295C150.812 113.221 150.772 113.144 150.727 113.069C150.113 111.953 149.409 110.89 148.621 109.888C148.188 109.341 147.727 108.816 147.241 108.316C145.981 107.025 144.526 105.939 142.927 105.098C139.741 103.423 136.052 102.781 132.647 103.804C132.56 103.831 132.475 103.857 132.388 103.885Z" fill="#F0F0F0"/>
<path d="M132.407 103.997C136.831 104.872 140.866 107.113 143.938 110.402C144.612 111.098 145.172 111.896 145.596 112.765C145.982 113.626 146.13 114.574 146.024 115.51C145.942 116.386 145.757 117.271 145.891 118.151C145.966 118.6 146.136 119.029 146.389 119.408C146.642 119.788 146.973 120.11 147.359 120.353C148.307 120.984 149.426 121.238 150.529 121.448C151.754 121.682 153.029 121.906 154.051 122.668C154.175 122.76 154.312 122.563 154.188 122.471C152.41 121.146 150.027 121.424 148.082 120.488C147.174 120.052 146.393 119.34 146.168 118.329C145.972 117.444 146.162 116.531 146.252 115.645C146.369 114.733 146.26 113.806 145.934 112.946C145.555 112.057 145.028 111.239 144.373 110.527C142.926 108.901 141.231 107.511 139.35 106.408C137.211 105.138 134.869 104.242 132.426 103.759C132.275 103.729 132.257 103.968 132.407 103.997Z" fill="white"/>
<path d="M143.011 109.285C143.495 108.697 143.754 107.956 143.74 107.196C143.727 106.436 143.442 105.705 142.938 105.134C142.835 105.019 142.651 105.172 142.753 105.287C143.224 105.818 143.489 106.499 143.5 107.207C143.511 107.915 143.268 108.604 142.814 109.149C142.715 109.267 142.913 109.403 143.011 109.285Z" fill="white"/>
<path d="M146.124 115.072C144.572 115.239 143.013 114.818 141.759 113.892C141.635 113.8 141.499 113.997 141.623 114.088C142.929 115.05 144.552 115.485 146.167 115.307C146.32 115.29 146.277 115.055 146.124 115.072Z" fill="white"/>
<path d="M137.17 105.453C137.03 105.719 136.826 105.947 136.576 106.116C136.326 106.284 136.038 106.388 135.738 106.419C135.584 106.434 135.628 106.669 135.781 106.654C136.113 106.619 136.431 106.504 136.707 106.318C136.984 106.132 137.21 105.882 137.367 105.589C137.384 105.563 137.391 105.531 137.385 105.5C137.38 105.469 137.362 105.441 137.337 105.423C137.311 105.405 137.278 105.398 137.247 105.404C137.216 105.409 137.188 105.427 137.17 105.453Z" fill="white"/>
<path d="M88.921 6.58046C88.7068 6.84645 88.5538 7.15597 88.4728 7.48721C88.3917 7.81845 88.3846 8.16336 88.4519 8.49764C88.5192 8.83193 88.6593 9.14745 88.8622 9.422C89.0652 9.69654 89.3262 9.92342 89.6268 10.0867L88.2573 18.2611L92.2101 16.5142L92.9046 9.01942C93.1465 8.49842 93.1881 7.90714 93.0215 7.35763C92.8549 6.80813 92.4916 6.33857 92.0006 6.03793C91.5096 5.7373 90.9249 5.62648 90.3573 5.72647C89.7897 5.82646 89.2787 6.13032 88.921 6.58046Z" fill="#9E616A"/>
<path d="M124.482 119.671L121.25 119.671L119.712 107.256L124.482 107.256L124.482 119.671Z" fill="#9E616A"/>
<path d="M125.306 122.791L114.884 122.791V122.659C114.884 121.588 115.312 120.561 116.072 119.803C116.833 119.045 117.865 118.62 118.941 118.62H118.941L125.306 118.62L125.306 122.791Z" fill="#2F2E41"/>
<path d="M102.794 119.671L99.5617 119.671L98.024 107.256L102.794 107.256L102.794 119.671Z" fill="#9E616A"/>
<path d="M103.618 122.791L93.1964 122.791V122.659C93.1964 121.588 93.6238 120.561 94.3845 119.803C95.1452 119.045 96.1769 118.62 97.2527 118.62H97.253L103.618 118.62L103.618 122.791Z" fill="#2F2E41"/>
<path d="M101.446 61.7398L100.238 63.3221C100.238 63.3221 100.129 64.061 98.2965 70.081L97.2913 115.33H103.372L111.5 79.1256L119.936 116.056L125.207 116.366L124.959 74.3902C124.959 74.3902 125.625 65.7546 123.265 64.1509C120.905 62.5472 101.446 61.7398 101.446 61.7398Z" fill="#2F2E41"/>
<path d="M109.601 23.7156C113.125 23.7156 115.982 20.8707 115.982 17.3613C115.982 13.852 113.125 11.0071 109.601 11.0071C106.077 11.0071 103.22 13.852 103.22 17.3613C103.22 20.8707 106.077 23.7156 109.601 23.7156Z" fill="#9E616A"/>
<path d="M116.02 18.3562L115.915 18.1463C115.752 17.8218 114.403 15.1237 114.233 14.4299L112.535 14.6288L108.114 14.6295L108.728 13.7117L107.104 13.9227C106.51 13.9946 105.942 14.2077 105.448 14.5441C105.145 14.7445 104.889 15.0074 104.697 15.315C104.117 16.3045 103.231 17.923 103.222 17.9393L103.137 18.0941L102.4 16.8601C102.391 16.8122 101.478 12.0701 104.533 10.4618C104.691 10.1431 106.034 7.63596 109.207 7.80519C109.556 7.40914 110.048 7.16585 110.575 7.12799C111.3 7.09035 112.052 7.4695 112.808 8.25963C113.812 9.30907 115.186 10.7462 116.018 12.342L116.247 12.6678C116.573 13.1341 116.734 13.6949 116.706 14.2623C116.882 15.1678 116.82 16.1035 116.524 16.9776L116.02 18.3562Z" fill="#2F2E41"/>
<path d="M114.463 24.9112L117.994 26.8545L124.929 28.7884L122.859 46.8628L123.236 64.6666C123.236 64.6666 111.496 72.6755 100.238 63.3221V40.9123L100.904 28.7884C100.904 28.7884 103.598 28.0263 104.955 29.3409L107.527 26.0131L114.463 24.9112Z" fill="#E4E4E4"/>
<path d="M102.46 30.4537L100.904 28.7885L92.3317 27.8214L93.1362 14.7097L88.4623 11.3894L85.0286 29.8482L100.891 40.9123L102.46 30.4537Z" fill="#E4E4E4"/>
<path d="M119.837 70.5499C119.773 70.215 119.784 69.8702 119.868 69.5398C119.953 69.2094 120.109 68.9014 120.325 68.6375C120.542 68.3737 120.815 68.1604 121.123 68.0127C121.432 67.865 121.769 67.7864 122.111 67.7826L124.751 59.923L127.42 63.3117L124.504 70.2558C124.472 70.8289 124.231 71.3706 123.825 71.7781C123.419 72.1857 122.877 72.4308 122.302 72.4671C121.727 72.5034 121.158 72.3282 120.704 71.9749C120.249 71.6215 119.941 71.1145 119.837 70.5499Z" fill="#9E616A"/>
<path d="M122.324 30.8574L124.929 28.7884C124.929 28.7884 127.594 30.2519 128.404 32.8758C129.215 35.4998 130.634 50.4364 130.634 50.4364L126.783 69.6118L122.476 66.6373L124.553 51.4457L120.905 40.3441L122.324 30.8574Z" fill="#E4E4E4"/>
<path d="M89.659 0H23.9464V15.9019H89.659V0Z" fill="#E6E6E6"/>
<path d="M25.6705 14.1848H87.9348V1.71706H25.6705V14.1848Z" fill="white"/>
<path d="M37.5298 12.7008C40.1641 12.7008 42.2996 10.5742 42.2996 7.95094C42.2996 5.32764 40.1641 3.20103 37.5298 3.20103C34.8956 3.20103 32.7601 5.32764 32.7601 7.95094C32.7601 10.5742 34.8956 12.7008 37.5298 12.7008Z" fill="#1C241F"/>
<path d="M80.8452 6.09227H48.9359V7.12486H80.8452V6.09227Z" fill="#1C241F"/>
<path d="M80.8452 8.77701H48.9359V9.8096H80.8452V8.77701Z" fill="#1C241F"/>
<path d="M0 24.1694L55.6008 28.2081V42.7459L0 41.7177V24.1694Z" fill="#E6E6E6"/>
<path d="M1.75146 39.8657L54.3868 41.1477V29.6966L1.75146 26.1811V39.8657Z" fill="white"/>
<path d="M13.3039 28.5231C13.9116 28.5621 14.5034 28.7328 15.038 29.0231C15.5742 29.315 16.0499 29.7056 16.4398 30.1742C16.8449 30.659 17.1623 31.2104 17.3776 31.8035C17.6048 32.4276 17.7207 33.0864 17.7202 33.7502C17.7226 34.404 17.6065 35.0528 17.3776 35.6656C17.1653 36.2347 16.8471 36.7587 16.4398 37.2104C16.0486 37.6444 15.5713 37.9929 15.038 38.2338C14.4935 38.4773 13.9005 38.5942 13.3039 38.5757C12.6933 38.5564 12.0945 38.4032 11.5503 38.127C10.9989 37.8462 10.5076 37.4616 10.1034 36.9943C9.67943 36.5059 9.34655 35.9459 9.12053 35.3408C8.88069 34.7017 8.75812 34.0249 8.75865 33.3426C8.75598 32.6705 8.87869 32.0037 9.12053 31.3762C9.34366 30.7967 9.67754 30.2658 10.1037 29.8129C10.5096 29.3813 11.0027 29.0403 11.5505 28.8123C12.1051 28.5839 12.7049 28.4849 13.3039 28.5231Z" fill="#E6E6E6"/>
<path d="M23.6595 32.1202L49.2773 33.4497V34.4159L23.6595 33.1764V32.1202Z" fill="#E6E6E6"/>
<path d="M23.6595 34.8667L49.2773 35.9619V36.9281L23.6595 35.9229V34.8667Z" fill="#E6E6E6"/>
<path d="M0 53.702L55.6008 52.674V67.2119L0 71.2505V53.702Z" fill="#E6E6E6"/>
<path d="M1.75146 69.2386L54.3868 65.7231V54.2732L1.75146 55.5552V69.2386Z" fill="white"/>
<path d="M8.76249 61.8456C8.78949 61.1638 8.93944 60.4925 9.20519 59.8636C9.45474 59.2709 9.80951 58.7279 10.2525 58.2606C10.6741 57.8141 11.1796 57.4544 11.7403 57.2018C12.2949 56.9531 12.898 56.8304 13.5061 56.8424C14.1028 56.8546 14.689 57.0016 15.2204 57.2723C15.7429 57.5408 16.2044 57.9133 16.5764 58.3667C16.9643 58.839 17.2605 59.3791 17.4496 59.9595C17.6533 60.5831 17.7432 61.2381 17.715 61.8933C17.6894 62.5565 17.5476 63.2101 17.2959 63.8246C17.0578 64.4072 16.7189 64.9436 16.2946 65.4095C15.8871 65.8589 15.3966 66.2262 14.8499 66.4913C14.304 66.7551 13.7064 66.8959 13.0996 66.9037C12.4988 66.9109 11.9043 66.7809 11.3617 66.5239C10.824 66.2669 10.3465 65.9005 9.95996 65.4482C9.55347 64.9729 9.24231 64.4244 9.04332 63.8324C8.82785 63.193 8.73265 62.5195 8.76249 61.8456Z" fill="#E6E6E6"/>
<path d="M23.6595 59.497L49.2773 58.4918V59.4581L23.6595 60.5532V59.497Z" fill="#E6E6E6"/>
<path d="M23.6595 62.2433L49.2773 61.004V61.9703L23.6595 63.2997V62.2433Z" fill="#E6E6E6"/>
<path d="M159.797 123H82.5723C82.5186 123 82.467 122.979 82.429 122.941C82.391 122.903 82.3696 122.852 82.3696 122.798C82.3696 122.745 82.391 122.693 82.429 122.655C82.467 122.618 82.5186 122.596 82.5723 122.596H159.797C159.851 122.596 159.903 122.618 159.941 122.655C159.979 122.693 160 122.745 160 122.798C160 122.852 159.979 122.903 159.941 122.941C159.903 122.979 159.851 123 159.797 123Z" fill="#CACACA"/>
</g>
<defs>
<clipPath id="clip0_2_171">
<rect width="160" height="123" fill="white"/>
</clipPath>
</defs>
</svg>
