<svg width="115" height="204" viewBox="0 0 115 204" fill="none" xmlns="http://www.w3.org/2000/svg">
<g clip-path="url(#clip0_87_443)">
<path d="M89.3166 191.433H28.2926C26.0689 191.433 23.8669 190.996 21.8125 190.147C19.758 189.298 17.8912 188.053 16.3188 186.485C14.7464 184.916 13.4991 183.053 12.6481 181.004C11.7971 178.954 11.3591 176.757 11.3591 174.539V16.8936C11.3642 12.4147 13.1499 8.12071 16.3245 4.95364C19.499 1.78656 23.8032 0.00507035 28.2926 0H89.3163C93.8058 0.00505646 98.11 1.78654 101.285 4.95362C104.459 8.12069 106.245 12.4147 106.25 16.8936V45.3669H107.301V66.3459H106.25V174.539C106.25 179.019 104.466 183.316 101.29 186.484C98.1147 189.653 93.8076 191.432 89.3166 191.433ZM28.2926 0.524632C23.9426 0.529533 19.7721 2.25569 16.6961 5.32442C13.6201 8.39314 11.8899 12.5538 11.885 16.8936V174.539C11.885 176.688 12.3093 178.817 13.1339 180.803C13.9584 182.789 15.167 184.594 16.6906 186.114C18.2142 187.634 20.023 188.839 22.0136 189.662C24.0043 190.485 26.1379 190.908 28.2926 190.908H89.3163C93.6679 190.908 97.8413 189.183 100.918 186.114C103.995 183.044 105.724 178.88 105.724 174.539V65.8213H106.775V45.8915H105.724V16.8936C105.719 12.5538 103.989 8.39314 100.913 5.32442C97.837 2.25569 93.6665 0.529533 89.3164 0.524632H28.2926Z" fill="#3F3D56"/>
<path d="M89.9889 187.106H28.6724C25.302 187.102 22.0706 185.765 19.6873 183.387C17.304 181.009 15.9634 177.786 15.9595 174.423V17.0097C15.9634 13.6471 17.304 10.4234 19.6873 8.04574C22.0706 5.66806 25.3019 4.33057 28.6724 4.32668H36.5017L36.3544 4.68787C36.0052 5.54412 35.8722 6.47288 35.9671 7.39244C36.0621 8.31201 36.3821 9.19421 36.899 9.96144C37.4159 10.7287 38.1138 11.3574 38.9315 11.7924C39.7491 12.2274 40.6613 12.4552 41.588 12.4559H76.5476C77.4742 12.4552 78.3865 12.2273 79.2041 11.7923C80.0217 11.3573 80.7196 10.7286 81.2365 9.96137C81.7534 9.19414 82.0734 8.31196 82.1684 7.39241C82.2633 6.47285 82.1303 5.54411 81.7811 4.68787L81.6337 4.32668H89.9889C93.3594 4.33058 96.5907 5.66808 98.974 8.04576C101.357 10.4234 102.698 13.6471 102.702 17.0097V174.423C102.698 177.786 101.357 181.009 98.974 183.387C96.5907 185.765 93.3594 187.102 89.9889 187.106ZM28.6724 4.85131C25.4414 4.85503 22.3437 6.13719 20.059 8.41652C17.7743 10.6959 16.4891 13.7862 16.4853 17.0097V174.423C16.4891 177.647 17.7743 180.737 20.059 183.016C22.3437 185.295 25.4414 186.578 28.6724 186.581H89.9889C93.2199 186.578 96.3176 185.295 98.6023 183.016C100.887 180.737 102.172 177.647 102.176 174.423V17.0097C102.172 13.7862 100.887 10.6959 98.6023 8.41654C96.3176 6.13721 93.22 4.85504 89.9889 4.85131H82.4026C82.7146 5.77828 82.8011 6.76597 82.6551 7.73289C82.5091 8.6998 82.1346 9.6182 81.5627 10.4123C80.9908 11.2064 80.2378 11.8534 79.3658 12.3C78.4939 12.7465 77.528 12.9798 76.5478 12.9805H41.5878C40.6076 12.9798 39.6417 12.7466 38.7697 12.3C37.8977 11.8535 37.1447 11.2065 36.5728 10.4124C36.0008 9.61826 35.6263 8.69986 35.4803 7.73293C35.3342 6.76601 35.4207 5.7783 35.7327 4.85131H28.6724Z" fill="#CCCCCC"/>
<path d="M109.446 102.504H5.55398C4.08148 102.503 2.66976 101.918 1.62855 100.88C0.587334 99.8408 0.00165701 98.4324 0 96.9634V63.718C0.00165701 62.249 0.587334 60.8406 1.62855 59.8018C2.66976 58.7631 4.08148 58.1788 5.55398 58.1771H109.446C110.919 58.1788 112.33 58.7631 113.371 59.8018C114.413 60.8406 114.998 62.249 115 63.718V96.9634C114.998 98.4324 114.413 99.8408 113.371 100.88C112.33 101.918 110.919 102.503 109.446 102.504Z" fill="white"/>
<path d="M109.446 102.504H5.55398C4.08148 102.503 2.66976 101.918 1.62855 100.88C0.587334 99.8408 0.00165701 98.4324 0 96.9634V63.718C0.00165701 62.249 0.587334 60.8406 1.62855 59.8018C2.66976 58.7631 4.08148 58.1788 5.55398 58.1771H109.446C110.919 58.1788 112.33 58.7631 113.371 59.8018C114.413 60.8406 114.998 62.249 115 63.718V96.9634C114.998 98.4324 114.413 99.8408 113.371 100.88C112.33 101.918 110.919 102.503 109.446 102.504ZM5.55398 58.829C4.25472 58.8304 3.00909 59.346 2.09038 60.2626C1.17166 61.1791 0.654879 62.4218 0.653406 63.718V96.9634C0.654879 98.2596 1.17166 99.5023 2.09038 100.419C3.00909 101.335 4.25472 101.851 5.55398 101.852H109.446C110.745 101.851 111.991 101.335 112.91 100.419C113.828 99.5023 114.345 98.2596 114.347 96.9634V63.718C114.345 62.4218 113.828 61.1791 112.91 60.2626C111.991 59.346 110.745 58.8304 109.446 58.829H5.55398Z" fill="#3F3D56"/>
<path d="M71.1239 78.5481H34.8597C34.1666 78.5481 33.5018 78.2734 33.0116 77.7844C32.5215 77.2954 32.2461 76.6321 32.2461 75.9406C32.2461 75.249 32.5215 74.5858 33.0116 74.0968C33.5018 73.6078 34.1666 73.3331 34.8597 73.3331H71.1239C71.8171 73.3331 72.4819 73.6078 72.9721 74.0968C73.4622 74.5858 73.7376 75.249 73.7376 75.9406C73.7376 76.6321 73.4622 77.2954 72.9721 77.7844C72.4819 78.2734 71.8171 78.5481 71.1239 78.5481Z" fill="#1C241F"/>
<path d="M104.775 87.3483H34.8597C34.1666 87.3483 33.5018 87.0736 33.0116 86.5846C32.5215 86.0956 32.2461 85.4324 32.2461 84.7408C32.2461 84.0493 32.5215 83.3861 33.0116 82.8971C33.5018 82.4081 34.1666 82.1334 34.8597 82.1334H104.775C105.468 82.1334 106.132 82.4081 106.623 82.8971C107.113 83.3861 107.388 84.0493 107.388 84.7408C107.388 85.4324 107.113 86.0956 106.623 86.5846C106.132 87.0736 105.468 87.3483 104.775 87.3483Z" fill="#1C241F"/>
<path d="M17.4132 90.1188C22.8262 90.1188 27.2143 85.741 27.2143 80.3407C27.2143 74.9404 22.8262 70.5627 17.4132 70.5627C12.0002 70.5627 7.61206 74.9404 7.61206 80.3407C7.61206 85.741 12.0002 90.1188 17.4132 90.1188Z" fill="#1C241F"/>
<path d="M104.771 97.9412H95.6229C94.9297 97.9412 94.2649 97.6665 93.7748 97.1775C93.2846 96.6885 93.0093 96.0253 93.0093 95.3337C93.0093 94.6422 93.2846 93.979 93.7748 93.49C94.2649 93.001 94.9297 92.7263 95.6229 92.7263H104.771C105.114 92.7263 105.454 92.7937 105.771 92.9247C106.088 93.0558 106.376 93.2478 106.619 93.49C106.861 93.7321 107.054 94.0195 107.185 94.3359C107.317 94.6523 107.384 94.9913 107.384 95.3337C107.384 95.6762 107.317 96.0152 107.185 96.3316C107.054 96.6479 106.861 96.9354 106.619 97.1775C106.376 97.4196 106.088 97.6117 105.771 97.7427C105.454 97.8738 105.114 97.9412 104.771 97.9412Z" fill="white"/>
<path d="M104.771 97.9412H95.6229C94.9297 97.9412 94.2649 97.6665 93.7748 97.1775C93.2846 96.6885 93.0093 96.0253 93.0093 95.3337C93.0093 94.6422 93.2846 93.979 93.7748 93.49C94.2649 93.001 94.9297 92.7263 95.6229 92.7263H104.771C105.114 92.7263 105.454 92.7937 105.771 92.9247C106.088 93.0558 106.376 93.2478 106.619 93.49C106.861 93.7321 107.054 94.0195 107.185 94.3359C107.317 94.6523 107.384 94.9913 107.384 95.3337C107.384 95.6762 107.317 96.0152 107.185 96.3316C107.054 96.6479 106.861 96.9354 106.619 97.1775C106.376 97.4196 106.088 97.6117 105.771 97.7427C105.454 97.8738 105.114 97.9412 104.771 97.9412Z" fill="#CCCCCC"/>
<path d="M89.0342 49.6536H31.2245C30.4051 49.6527 29.6196 49.3275 29.0402 48.7495C28.4608 48.1715 28.135 47.3878 28.134 46.5704V28.0713C28.135 27.2539 28.4609 26.4702 29.0402 25.8922C29.6196 25.3142 30.4051 24.9891 31.2245 24.9882H89.0342C89.8535 24.9891 90.639 25.3142 91.2184 25.8922C91.7978 26.4702 92.1237 27.2539 92.1246 28.0713V46.5704C92.1237 47.3878 91.7978 48.1715 91.2184 48.7495C90.639 49.3275 89.8535 49.6527 89.0342 49.6536ZM31.2245 25.3509C30.5015 25.3517 29.8084 25.6386 29.2972 26.1486C28.786 26.6586 28.4984 27.3501 28.4976 28.0713V46.5704C28.4984 47.2916 28.786 47.9831 29.2972 48.4931C29.8084 49.0031 30.5015 49.29 31.2245 49.2908H89.0342C89.7571 49.29 90.4502 49.0031 90.9614 48.4931C91.4726 47.9831 91.7602 47.2917 91.761 46.5704V28.0713C91.7602 27.3501 91.4726 26.6586 90.9614 26.1486C90.4502 25.6386 89.7571 25.3517 89.0342 25.3509H31.2245Z" fill="#CCCCCC"/>
<path d="M67.7103 36.3234H47.5315C47.1461 36.3228 46.7767 36.1697 46.5044 35.8977C46.2321 35.6257 46.0791 35.2569 46.0791 34.8724C46.0791 34.488 46.2321 34.1192 46.5044 33.8472C46.7767 33.5751 47.1461 33.4221 47.5315 33.4215H67.7103C68.0957 33.4221 68.4651 33.5751 68.7374 33.8472C69.0097 34.1192 69.1627 34.488 69.1627 34.8724C69.1627 35.2569 69.0097 35.6257 68.7374 35.8977C68.4651 36.1697 68.0957 36.3228 67.7103 36.3234Z" fill="#E6E6E6"/>
<path d="M86.4349 41.2202H47.5315C47.1461 41.2197 46.7767 41.0666 46.5044 40.7945C46.2321 40.5225 46.0791 40.1537 46.0791 39.7693C46.0791 39.3848 46.2321 39.016 46.5044 38.744C46.7767 38.472 47.1461 38.3189 47.5315 38.3184H86.4349C86.626 38.3181 86.8153 38.3554 86.992 38.4282C87.1687 38.501 87.3292 38.6079 87.4645 38.7426C87.5997 38.8774 87.707 39.0374 87.7803 39.2136C87.8535 39.3897 87.8911 39.5786 87.8911 39.7693C87.8911 39.96 87.8535 40.1488 87.7803 40.325C87.707 40.5011 87.5997 40.6611 87.4645 40.7959C87.3292 40.9307 87.1687 41.0375 86.992 41.1103C86.8153 41.1831 86.626 41.2204 86.4349 41.2202Z" fill="#E6E6E6"/>
<path d="M37.8234 42.7618C40.8354 42.7618 43.2771 40.3258 43.2771 37.3209C43.2771 34.3159 40.8354 31.88 37.8234 31.88C34.8114 31.88 32.3696 34.3159 32.3696 37.3209C32.3696 40.3258 34.8114 42.7618 37.8234 42.7618Z" fill="#E6E6E6"/>
<path d="M86.4327 47.1145H81.3425C81.1514 47.1147 80.962 47.0774 80.7854 47.0046C80.6087 46.9318 80.4481 46.825 80.3129 46.6902C80.1776 46.5555 80.0703 46.3954 79.9971 46.2193C79.9239 46.0431 79.8862 45.8543 79.8862 45.6636C79.8862 45.4729 79.9239 45.284 79.9971 45.1079C80.0703 44.9317 80.1776 44.7717 80.3129 44.6369C80.4481 44.5022 80.6087 44.3953 80.7854 44.3225C80.962 44.2497 81.1514 44.2124 81.3425 44.2127H86.4327C86.8181 44.2132 87.1875 44.3663 87.4598 44.6383C87.7321 44.9104 87.8851 45.2791 87.8851 45.6636C87.8851 46.048 87.7321 46.4168 87.4598 46.6888C87.1875 46.9609 86.8181 47.114 86.4327 47.1145Z" fill="white"/>
<path d="M86.4327 47.1145H81.3425C81.1514 47.1147 80.962 47.0774 80.7854 47.0046C80.6087 46.9318 80.4481 46.825 80.3129 46.6902C80.1776 46.5555 80.0703 46.3954 79.9971 46.2193C79.9239 46.0431 79.8862 45.8543 79.8862 45.6636C79.8862 45.4729 79.9239 45.284 79.9971 45.1079C80.0703 44.9317 80.1776 44.7717 80.3129 44.6369C80.4481 44.5022 80.6087 44.3953 80.7854 44.3225C80.962 44.2497 81.1514 44.2124 81.3425 44.2127H86.4327C86.8181 44.2132 87.1875 44.3663 87.4598 44.6383C87.7321 44.9104 87.8851 45.2791 87.8851 45.6636C87.8851 46.048 87.7321 46.4168 87.4598 46.6888C87.1875 46.9609 86.8181 47.114 86.4327 47.1145Z" fill="#CCCCCC"/>
<path d="M89.0342 135.169H31.2245C30.4051 135.168 29.6196 134.843 29.0402 134.265C28.4608 133.687 28.135 132.903 28.134 132.085V113.586C28.135 112.769 28.4609 111.985 29.0402 111.407C29.6196 110.829 30.4051 110.504 31.2245 110.503H89.0342C89.8535 110.504 90.639 110.829 91.2184 111.407C91.7978 111.985 92.1237 112.769 92.1246 113.586V132.085C92.1237 132.903 91.7978 133.687 91.2184 134.265C90.639 134.843 89.8535 135.168 89.0342 135.169ZM31.2245 110.866C30.5015 110.867 29.8084 111.154 29.2972 111.664C28.786 112.174 28.4984 112.865 28.4976 113.586V132.085C28.4984 132.807 28.786 133.498 29.2972 134.008C29.8084 134.518 30.5015 134.805 31.2245 134.806H89.0342C89.7571 134.805 90.4502 134.518 90.9614 134.008C91.4726 133.498 91.7602 132.807 91.761 132.085V113.586C91.7602 112.865 91.4726 112.174 90.9614 111.664C90.4502 111.154 89.7571 110.867 89.0342 110.866H31.2245Z" fill="#CCCCCC"/>
<path d="M67.7103 121.838H47.5315C47.1458 121.838 46.7759 121.686 46.5031 121.413C46.2304 121.141 46.0771 120.772 46.0771 120.388C46.0771 120.003 46.2304 119.634 46.5031 119.362C46.7759 119.089 47.1458 118.937 47.5315 118.937H67.7103C68.0957 118.937 68.4651 119.09 68.7374 119.362C69.0098 119.634 69.1627 120.003 69.1627 120.388C69.1627 120.772 69.0098 121.141 68.7374 121.413C68.4651 121.685 68.0957 121.838 67.7103 121.838Z" fill="#E6E6E6"/>
<path d="M86.4349 126.735H47.5315C47.1461 126.735 46.7767 126.582 46.5044 126.31C46.2321 126.038 46.0791 125.669 46.0791 125.284C46.0791 124.9 46.2321 124.531 46.5044 124.259C46.7767 123.987 47.1461 123.834 47.5315 123.833H86.4349C86.8206 123.833 87.1905 123.986 87.4632 124.258C87.736 124.53 87.8892 124.9 87.8892 125.284C87.8892 125.669 87.736 126.038 87.4632 126.31C87.1905 126.582 86.8206 126.735 86.4349 126.735Z" fill="#E6E6E6"/>
<path d="M37.8234 128.277C40.8354 128.277 43.2771 125.841 43.2771 122.836C43.2771 119.831 40.8354 117.395 37.8234 117.395C34.8114 117.395 32.3696 119.831 32.3696 122.836C32.3696 125.841 34.8114 128.277 37.8234 128.277Z" fill="#E6E6E6"/>
<path d="M86.4327 132.63H81.3425C80.9568 132.63 80.5869 132.477 80.3142 132.205C80.0414 131.932 79.8882 131.563 79.8882 131.179C79.8882 130.794 80.0414 130.425 80.3142 130.153C80.5869 129.881 80.9568 129.728 81.3425 129.728H86.4327C86.8181 129.728 87.1875 129.881 87.4598 130.153C87.7321 130.425 87.885 130.794 87.885 131.179C87.885 131.563 87.7321 131.932 87.4598 132.204C87.1875 132.476 86.8181 132.629 86.4327 132.63Z" fill="white"/>
<path d="M86.4327 132.63H81.3425C80.9568 132.63 80.5869 132.477 80.3142 132.205C80.0414 131.932 79.8882 131.563 79.8882 131.179C79.8882 130.794 80.0414 130.425 80.3142 130.153C80.5869 129.881 80.9568 129.728 81.3425 129.728H86.4327C86.8181 129.728 87.1875 129.881 87.4598 130.153C87.7321 130.425 87.885 130.794 87.885 131.179C87.885 131.563 87.7321 131.932 87.4598 132.204C87.1875 132.476 86.8181 132.629 86.4327 132.63Z" fill="#CCCCCC"/>
<path d="M89.0342 169.532H31.2245C30.4051 169.531 29.6196 169.206 29.0402 168.628C28.4608 168.05 28.135 167.266 28.134 166.449V147.95C28.135 147.132 28.4609 146.349 29.0402 145.771C29.6196 145.193 30.4051 144.868 31.2245 144.867H89.0342C89.8535 144.868 90.639 145.193 91.2184 145.771C91.7978 146.349 92.1237 147.132 92.1246 147.95V166.449C92.1237 167.266 91.7978 168.05 91.2184 168.628C90.639 169.206 89.8535 169.531 89.0342 169.532ZM31.2245 145.229C30.5015 145.23 29.8084 145.517 29.2972 146.027C28.786 146.537 28.4984 147.229 28.4976 147.95V166.449C28.4984 167.17 28.786 167.862 29.2972 168.372C29.8084 168.882 30.5015 169.169 31.2245 169.169H89.0342C89.7571 169.169 90.4502 168.882 90.9614 168.372C91.4726 167.862 91.7602 167.17 91.761 166.449V147.95C91.7602 147.229 91.4726 146.537 90.9614 146.027C90.4502 145.517 89.7571 145.23 89.0342 145.229H31.2245Z" fill="#CCCCCC"/>
<path d="M67.7103 156.202H47.5315C47.1458 156.202 46.7759 156.049 46.5031 155.777C46.2304 155.505 46.0771 155.136 46.0771 154.751C46.0771 154.366 46.2304 153.997 46.5031 153.725C46.7759 153.453 47.1458 153.3 47.5315 153.3H67.7103C68.0957 153.301 68.4651 153.454 68.7374 153.726C69.0098 153.998 69.1627 154.366 69.1627 154.751C69.1627 155.135 69.0098 155.504 68.7374 155.776C68.4651 156.048 68.0957 156.201 67.7103 156.202Z" fill="#E6E6E6"/>
<path d="M86.4349 161.099H47.5315C47.1461 161.098 46.7767 160.945 46.5044 160.673C46.2321 160.401 46.0791 160.032 46.0791 159.648C46.0791 159.263 46.2321 158.895 46.5044 158.623C46.7767 158.35 47.1461 158.197 47.5315 158.197H86.4349C86.8206 158.197 87.1905 158.35 87.4632 158.622C87.736 158.894 87.8892 159.263 87.8892 159.648C87.8892 160.033 87.736 160.402 87.4632 160.674C87.1905 160.946 86.8206 161.099 86.4349 161.099Z" fill="#E6E6E6"/>
<path d="M37.8234 162.64C40.8354 162.64 43.2771 160.204 43.2771 157.199C43.2771 154.194 40.8354 151.758 37.8234 151.758C34.8114 151.758 32.3696 154.194 32.3696 157.199C32.3696 160.204 34.8114 162.64 37.8234 162.64Z" fill="#E6E6E6"/>
<path d="M86.4327 166.993H81.3425C80.9568 166.993 80.5869 166.84 80.3142 166.568C80.0414 166.296 79.8882 165.927 79.8882 165.542C79.8882 165.157 80.0414 164.788 80.3142 164.516C80.5869 164.244 80.9568 164.091 81.3425 164.091H86.4327C86.8181 164.092 87.1875 164.245 87.4598 164.517C87.7321 164.789 87.885 165.158 87.885 165.542C87.885 165.927 87.7321 166.295 87.4598 166.567C87.1875 166.839 86.8181 166.992 86.4327 166.993Z" fill="white"/>
<path d="M86.4327 166.993H81.3425C80.9568 166.993 80.5869 166.84 80.3142 166.568C80.0414 166.296 79.8882 165.927 79.8882 165.542C79.8882 165.157 80.0414 164.788 80.3142 164.516C80.5869 164.244 80.9568 164.091 81.3425 164.091H86.4327C86.8181 164.092 87.1875 164.245 87.4598 164.517C87.7321 164.789 87.885 165.158 87.885 165.542C87.885 165.927 87.7321 166.295 87.4598 166.567C87.1875 166.839 86.8181 166.992 86.4327 166.993Z" fill="#CCCCCC"/>
<path d="M53.0227 200.883H56.2463L57.7798 188.478L53.0222 188.478L53.0227 200.883Z" fill="#FFB8B8"/>
<path d="M52.2004 199.833L58.5487 199.832H58.549C59.0802 199.832 59.6063 199.937 60.0972 200.14C60.588 200.342 61.034 200.64 61.4097 201.014C61.7853 201.389 62.0834 201.834 62.2867 202.324C62.49 202.814 62.5946 203.338 62.5946 203.868V204L52.2006 204L52.2004 199.833Z" fill="#2F2E41"/>
<path d="M40.139 200.883H43.3625L44.896 188.478L40.1384 188.478L40.139 200.883Z" fill="#FFB8B8"/>
<path d="M39.3167 199.833L45.6649 199.832H45.6652C46.1965 199.832 46.7225 199.937 47.2134 200.14C47.7042 200.342 48.1502 200.64 48.5259 201.014C48.9016 201.389 49.1996 201.834 49.4029 202.324C49.6062 202.814 49.7108 203.338 49.7108 203.868V204L39.3169 204L39.3167 199.833Z" fill="#2F2E41"/>
<path d="M53.6662 115.005C57.2328 115.005 60.1242 112.121 60.1242 108.563C60.1242 105.004 57.2328 102.12 53.6662 102.12C50.0996 102.12 47.2083 105.004 47.2083 108.563C47.2083 112.121 50.0996 115.005 53.6662 115.005Z" fill="#FFB8B8"/>
<path d="M58.0089 198.205H52.0269C51.8703 198.205 51.7153 198.174 51.5708 198.114C51.4263 198.054 51.2952 197.966 51.1852 197.855C51.0752 197.743 50.9883 197.612 50.9297 197.467C50.8711 197.322 50.8419 197.167 50.8438 197.011L51.1914 168.672C51.1927 168.572 51.1552 168.474 51.0868 168.4C51.0183 168.326 50.924 168.281 50.8234 168.275C50.7227 168.268 50.6233 168.3 50.5455 168.364C50.4678 168.428 50.4177 168.52 50.4055 168.62L46.924 197.168C46.8889 197.454 46.7501 197.717 46.5337 197.908C46.3174 198.1 46.0385 198.205 45.7495 198.205H39.7101C39.5469 198.205 39.3855 198.172 39.236 198.107C39.0865 198.041 38.9522 197.946 38.8414 197.826C38.7306 197.707 38.6458 197.566 38.5923 197.412C38.5388 197.258 38.5177 197.095 38.5305 196.933L42.5185 146.024L42.6269 146.012L61.7236 143.955L59.1908 197.081C59.1767 197.384 59.0459 197.67 58.8258 197.88C58.6056 198.089 58.313 198.206 58.0089 198.205Z" fill="#2F2E41"/>
<path d="M42.7508 149.149C42.444 149.148 42.1495 149.029 41.9295 148.815C41.7095 148.602 41.5813 148.312 41.5719 148.006C41.4676 144.787 41.289 133.649 43.3656 125.472C43.9324 123.238 45.2045 121.245 46.994 119.788C48.7835 118.332 50.9954 117.488 53.3026 117.382C55.5736 117.258 57.826 117.851 59.7402 119.076C61.6544 120.302 63.1333 122.097 63.9669 124.208C67.4575 133.049 70.7554 143.947 66.6438 145.656C61.255 147.896 47.049 148.894 42.8234 149.147C42.7991 149.148 42.7749 149.149 42.7508 149.149Z" fill="#1C241F"/>
<path d="M67.433 102.051C67.5345 102.155 67.644 102.251 67.7606 102.337L67.0827 115.329L64.2629 116.769L65.8855 121.299L71.1257 119.233C71.549 119.066 71.9067 118.767 72.1449 118.38C72.3832 117.993 72.4893 117.539 72.4471 117.087L71.0743 102.35C71.5235 102.016 71.8601 101.553 72.0392 101.023C72.2183 100.494 72.2314 99.9218 72.0769 99.3843C71.9223 98.8468 71.6074 98.369 71.1741 98.0144C70.7407 97.6598 70.2094 97.4453 69.6508 97.3993C69.0922 97.3533 68.5328 97.4781 68.047 97.757C67.5613 98.0359 67.1721 98.4558 66.9314 98.9608C66.6906 99.4657 66.6096 100.032 66.6992 100.584C66.7889 101.136 67.0448 101.647 67.433 102.051Z" fill="#FFB8B8"/>
<path d="M67.1363 115.813L69.1199 121.436C69.1764 121.596 69.1976 121.767 69.1821 121.936C69.1666 122.105 69.1149 122.268 69.0303 122.415C68.9457 122.562 68.8304 122.69 68.692 122.788C68.5537 122.887 68.3957 122.955 68.2288 122.987L62.3797 124.117C61.5574 124.401 60.656 124.347 59.8731 123.969C59.0902 123.59 58.4898 122.917 58.2034 122.098C57.917 121.278 57.9681 120.379 58.3455 119.597C58.7228 118.815 59.3956 118.214 60.2164 117.926L65.4682 115.16C65.6186 115.081 65.7843 115.035 65.9541 115.026C66.1238 115.016 66.2936 115.044 66.4519 115.105C66.6102 115.167 66.7533 115.263 66.8714 115.385C66.9895 115.507 67.0799 115.653 67.1363 115.813Z" fill="#1C241F"/>
<path d="M39.4602 102.051C39.3587 102.155 39.2491 102.251 39.1326 102.337L39.8105 115.329L42.6302 116.769L41.0077 121.299L35.7675 119.233C35.3442 119.066 34.9865 118.767 34.7482 118.38C34.5099 117.993 34.4039 117.539 34.446 117.087L35.8189 102.35C35.3696 102.016 35.0331 101.553 34.854 101.023C34.6749 100.494 34.6618 99.9218 34.8163 99.3843C34.9708 98.8468 35.2857 98.369 35.7191 98.0144C36.1525 97.6598 36.6838 97.4453 37.2424 97.3993C37.801 97.3533 38.3604 97.4781 38.8462 97.757C39.3319 98.0359 39.7211 98.4558 39.9618 98.9607C40.2026 99.4657 40.2835 100.032 40.1939 100.584C40.1043 101.136 39.8484 101.647 39.4602 102.051Z" fill="#FFB8B8"/>
<path d="M40.4414 115.105C40.5997 115.043 40.7695 115.016 40.9393 115.026C41.1091 115.035 41.2748 115.081 41.4251 115.16L46.6769 117.926C47.4977 118.214 48.1705 118.815 48.5478 119.597C48.9252 120.379 48.9763 121.278 48.6899 122.098C48.4035 122.917 47.8031 123.59 47.0202 123.969C46.2373 124.347 45.3359 124.401 44.5136 124.117L38.6645 122.987C38.4975 122.955 38.3396 122.887 38.2013 122.788C38.063 122.69 37.9476 122.562 37.863 122.415C37.7785 122.268 37.7267 122.105 37.7112 121.936C37.6957 121.767 37.7169 121.596 37.7734 121.436L39.757 115.813C39.8134 115.653 39.9037 115.506 40.0218 115.384C40.1399 115.262 40.2831 115.167 40.4414 115.105Z" fill="#1C241F"/>
<path d="M56.1744 109.661C56.1405 108.839 56.3472 108.025 56.7694 107.318C57.1915 106.612 57.8108 106.043 58.5515 105.682C60.5145 104.671 61.7477 102.514 61.2074 100.545C60.5157 98.0247 57.077 96.39 54.2908 97.2572C53.5368 97.5243 52.8095 97.8615 52.1188 98.2643L50.2984 99.2378C49.5208 99.6262 48.7711 100.068 48.0545 100.559C46.9813 101.348 46.1401 102.41 45.6188 103.635C45.0975 104.859 44.9153 106.2 45.0912 107.519C45.4497 110.081 47.1317 112.431 49.4343 114.04C50.3148 114.697 51.3318 115.148 52.4104 115.36C53.514 115.541 54.7427 115.335 55.5497 114.65C56.8108 113.58 56.6805 111.788 56.2726 110.291C56.2187 110.085 56.1858 109.874 56.1744 109.661Z" fill="#2F2E41"/>
</g>
<defs>
<clipPath id="clip0_87_443">
<rect width="115" height="204" fill="white"/>
</clipPath>
</defs>
</svg>
