<?xml version="1.0" encoding="UTF-8" standalone="no"?>
<svg
   xmlns:dc="http://purl.org/dc/elements/1.1/"
   xmlns:cc="http://creativecommons.org/ns#"
   xmlns:rdf="http://www.w3.org/1999/02/22-rdf-syntax-ns#"
   xmlns:svg="http://www.w3.org/2000/svg"
   xmlns="http://www.w3.org/2000/svg"
   xmlns:sodipodi="http://sodipodi.sourceforge.net/DTD/sodipodi-0.dtd"
   xmlns:inkscape="http://www.inkscape.org/namespaces/inkscape"
   width="74mm"
   height="52mm"
   viewBox="0 0 74 52"
   version="1.1"
   id="svg8"
   inkscape:version="1.0.2-2 (e86c870879, 2021-01-15)"
   sodipodi:docname="imagem_lateral.svg">
  <defs
     id="defs2">
    <inkscape:path-effect
       effect="taper_stroke"
       id="path-effect2011"
       is_visible="true"
       lpeversion="1"
       stroke_width="3"
       attach_start="0.62551684"
       end_offset="0.028169673"
       smoothing="0.5"
       jointype="extrapolated"
       miter_limit="100" />
    <inkscape:path-effect
       effect="taper_stroke"
       id="path-effect2009"
       is_visible="true"
       lpeversion="1"
       stroke_width="1.3613827"
       attach_start="0.35972572"
       end_offset="0.5"
       smoothing="0.3"
       jointype="extrapolated"
       miter_limit="100" />
    <inkscape:path-effect
       effect="taper_stroke"
       id="path-effect2005"
       is_visible="true"
       lpeversion="1"
       stroke_width="4"
       attach_start="0.35972572"
       end_offset="0.5"
       smoothing="0.3"
       jointype="extrapolated"
       miter_limit="100" />
    <clipPath
       id="clip0_115_464">
      <rect
         width="205"
         height="173"
         fill="#ffffff"
         id="rect943"
         x="0"
         y="0" />
    </clipPath>
  </defs>
  <sodipodi:namedview
     id="base"
     pagecolor="#ffffff"
     bordercolor="#666666"
     borderopacity="1.0"
     inkscape:pageopacity="0.0"
     inkscape:pageshadow="2"
     inkscape:zoom="1.979899"
     inkscape:cx="158.88404"
     inkscape:cy="153.57048"
     inkscape:document-units="mm"
     inkscape:current-layer="layer1"
     inkscape:document-rotation="0"
     showgrid="false"
     units="mm"
     inkscape:window-width="1512"
     inkscape:window-height="1041"
     inkscape:window-x="130"
     inkscape:window-y="0"
     inkscape:window-maximized="0" />
  <metadata
     id="metadata5">
    <rdf:RDF>
      <cc:Work
         rdf:about="">
        <dc:format>image/svg+xml</dc:format>
        <dc:type
           rdf:resource="http://purl.org/dc/dcmitype/StillImage" />
        <dc:title></dc:title>
      </cc:Work>
    </rdf:RDF>
  </metadata>
  <g
     inkscape:label="Layer 1"
     inkscape:groupmode="layer"
     id="layer1">
    <g
       style="fill:none"
       id="g1011"
       transform="matrix(0.26458333,0,0,0.26458333,8.8003079,2.7882704)">
      <g
         clip-path="url(#clip0_115_464)"
         id="g941">
        <path
           d="m 183.799,161.736 -3.448,3.169 2.74,-4.59 c -2.158,-3.907 -5.689,-7.284 -5.689,-7.284 0,0 -7.324,7.005 -7.324,12.511 0,5.506 3.279,7.429 7.324,7.429 4.045,0 7.325,-1.923 7.325,-7.429 -0.046,-1.319 -0.362,-2.614 -0.928,-3.806 z"
           fill="#f0f0f0"
           id="path833" />
        <ellipse
           cx="106"
           cy="106.5"
           rx="51"
           ry="50.5"
           fill="#e4e4e4"
           id="ellipse835" />
        <path
           d="m 179.465,165.076 v 0.271 c -0.016,3.155 -0.549,5.617 -1.595,7.35 -0.015,0.025 -0.031,0.05 -0.046,0.075 l -0.117,-0.071 -0.112,-0.07 c 1.16,-1.872 1.571,-4.517 1.586,-7.269 10e-4,-0.089 0.003,-0.179 10e-4,-0.269 -0.004,-1.164 -0.075,-2.343 -0.19,-3.488 -0.008,-0.088 -0.017,-0.178 -0.027,-0.268 -0.158,-1.51 -0.387,-2.954 -0.621,-4.207 -0.017,-0.089 -0.034,-0.177 -0.052,-0.265 -0.405,-2.12 -0.818,-3.656 -0.912,-3.996 -0.011,-0.041 -0.018,-0.064 -0.019,-0.07 l 0.128,-0.036 0.001,-0.001 0.129,-0.036 c 0.002,0.005 0.025,0.082 0.062,0.224 0.144,0.532 0.519,1.976 0.886,3.882 0.016,0.086 0.034,0.174 0.05,0.263 0.191,1.017 0.378,2.154 0.526,3.347 0.038,0.299 0.071,0.595 0.101,0.887 0.011,0.09 0.02,0.18 0.028,0.268 0.124,1.238 0.188,2.397 0.193,3.479 z"
           fill="#ffffff"
           id="path837" />
        <path
           d="m 178.567,156.832 c -0.09,0.012 -0.182,0.024 -0.275,0.033 -0.252,0.026 -0.505,0.039 -0.759,0.039 -1.08,0.002 -2.147,-0.239 -3.122,-0.704 -0.057,0.071 -0.114,0.143 -0.171,0.215 1.025,0.5 2.152,0.759 3.293,0.758 0.271,0 0.541,-0.014 0.811,-0.043 0.091,-0.009 0.183,-0.022 0.273,-0.035 0.744,-0.107 1.468,-0.325 2.147,-0.649 -0.058,-0.074 -0.115,-0.146 -0.17,-0.218 -0.642,0.3 -1.325,0.503 -2.027,0.604 z"
           fill="#ffffff"
           id="path839" />
        <path
           d="m 179.244,161.329 c -0.093,0.005 -0.186,0.008 -0.279,0.008 -0.028,0.001 -0.057,0.001 -0.086,0.001 -1.171,0 -2.324,-0.282 -3.362,-0.824 -1.038,-0.541 -1.929,-1.324 -2.598,-2.284 -0.054,0.08 -0.108,0.159 -0.16,0.24 0.697,0.97 1.616,1.761 2.68,2.307 1.065,0.545 2.244,0.83 3.44,0.83 0.038,0 0.076,0 0.113,-0.002 0.095,-10e-4 0.187,-0.004 0.28,-0.008 1.438,-0.073 2.823,-0.558 3.991,-1.397 -0.043,-0.079 -0.086,-0.158 -0.13,-0.238 -1.136,0.824 -2.487,1.299 -3.889,1.367 z"
           fill="#ffffff"
           id="path841" />
        <path
           d="m 179.465,165.076 c -0.094,0.008 -0.189,0.013 -0.283,0.017 -0.101,0.004 -0.202,0.007 -0.303,0.007 -1.573,-0.002 -3.103,-0.512 -4.362,-1.455 -1.258,-0.943 -2.177,-2.267 -2.618,-3.774 -0.061,0.109 -0.121,0.216 -0.179,0.325 0.497,1.504 1.456,2.813 2.742,3.742 1.285,0.928 2.831,1.429 4.417,1.431 0.101,0 0.202,-0.001 0.302,-0.007 0.095,-0.003 0.19,-0.008 0.284,-0.015 1.903,-0.148 3.678,-1.013 4.967,-2.419 -0.029,-0.1 -0.061,-0.198 -0.093,-0.297 -1.244,1.416 -2.993,2.293 -4.874,2.445 z"
           fill="#ffffff"
           id="path843" />
        <path
           d="m 154.97,42.715 0.145,-2.7469 0.738,3.0538 c 2.517,0.757 5.392,0.728 5.392,0.728 0,0 0.194,-5.951 -2.073,-8.266 -2.268,-2.315 -4.439,-1.7775 -6.14,-0.1174 -1.7,1.6601 -2.287,3.8142 -0.019,6.1292 0.562,0.5356 1.228,0.9506 1.957,1.2193 z"
           fill="#f0f0f0"
           id="path845" />
        <path
           d="m 155.417,39.5322 -0.112,-0.1141 c -1.293,-1.333 -2.082,-2.5867 -2.357,-3.7446 -0.004,-0.0168 -0.007,-0.0336 -0.011,-0.0504 l 0.078,-0.0181 0.076,-0.0165 c 0.283,1.2631 1.2,2.5438 2.327,3.7068 0.036,0.0379 0.073,0.0763 0.11,0.1136 0.482,0.4881 0.997,0.9542 1.517,1.3886 0.04,0.0339 0.081,0.0679 0.122,0.1019 0.689,0.5698 1.379,1.0826 1.994,1.5135 0.043,0.0306 0.087,0.0607 0.13,0.0903 1.044,0.7251 1.85,1.2012 2.03,1.3055 0.022,0.0131 0.034,0.0199 0.037,0.0216 l -0.039,0.0677 v 0.0012 l -0.04,0.0682 c -0.002,-0.0017 -0.043,-0.0245 -0.118,-0.0689 -0.28,-0.1646 -1.032,-0.6183 -1.971,-1.2685 -0.042,-0.0295 -0.086,-0.0596 -0.13,-0.0903 -0.499,-0.3492 -1.046,-0.7503 -1.599,-1.1912 -0.14,-0.1105 -0.275,-0.2209 -0.408,-0.3314 -0.042,-0.0334 -0.083,-0.0674 -0.123,-0.1014 -0.561,-0.4694 -1.066,-0.9306 -1.513,-1.3835 z"
           fill="#ffffff"
           id="path847" />
        <path
           d="m 159.19,42.6299 c 0.033,-0.0421 0.066,-0.0847 0.101,-0.1268 0.096,-0.1144 0.197,-0.2239 0.304,-0.328 0.453,-0.444 1.001,-0.7808 1.603,-0.9855 -0.006,-0.0532 -0.012,-0.1063 -0.017,-0.1605 -0.637,0.2108 -1.218,0.5641 -1.697,1.0331 -0.114,0.1111 -0.222,0.2281 -0.323,0.3506 -0.035,0.0415 -0.068,0.0842 -0.101,0.1268 -0.269,0.3503 -0.483,0.7394 -0.635,1.1539 0.055,0.0074 0.108,0.0147 0.161,0.022 0.147,-0.3896 0.35,-0.7554 0.604,-1.0856 z"
           fill="#ffffff"
           id="path849" />
        <path
           d="m 157.053,41.0171 c 0.037,-0.0403 0.075,-0.0796 0.114,-0.1177 0.011,-0.0122 0.024,-0.0243 0.035,-0.0359 0.493,-0.4806 1.094,-0.8351 1.753,-1.0335 0.66,-0.1984 1.357,-0.2347 2.033,-0.1059 -0.01,-0.0554 -0.02,-0.1109 -0.031,-0.1663 -0.693,-0.122 -1.405,-0.0774 -2.077,0.13 -0.672,0.2074 -1.285,0.5717 -1.788,1.0627 -0.016,0.0155 -0.032,0.0309 -0.047,0.047 -0.039,0.0392 -0.077,0.0785 -0.115,0.1183 -0.574,0.6207 -0.956,1.3932 -1.102,2.2253 0.051,0.0157 0.101,0.0313 0.153,0.0464 0.138,-0.8122 0.511,-1.5664 1.072,-2.1704 z"
           fill="#ffffff"
           id="path851" />
        <path
           d="m 155.417,39.5321 c 0.036,-0.042 0.073,-0.0829 0.111,-0.1233 0.041,-0.0431 0.082,-0.0857 0.125,-0.1271 0.662,-0.645 1.516,-1.0584 2.433,-1.1785 0.918,-0.1201 1.849,0.0597 2.656,0.5123 -0.02,-0.0706 -0.039,-0.1406 -0.059,-0.2102 -0.829,-0.4282 -1.771,-0.5849 -2.694,-0.4479 -0.923,0.137 -1.779,0.5609 -2.447,1.2113 -0.042,0.0414 -0.084,0.0834 -0.124,0.1266 -0.039,0.0403 -0.076,0.0812 -0.113,0.1227 -0.739,0.8435 -1.129,1.9359 -1.092,3.0558 0.053,0.0302 0.107,0.0582 0.162,0.0867 -0.061,-1.1063 0.313,-2.1926 1.042,-3.0284 z"
           fill="#ffffff"
           id="path853" />
        <path
           d="m 50.4152,63.1282 0.1446,-2.7469 0.7382,3.0539 c 2.517,0.7569 5.3922,0.7279 5.3922,0.7279 0,0 0.1944,-5.951 -2.0735,-8.266 -2.2678,-2.315 -4.4384,-1.7775 -6.1392,-0.1174 -1.7007,1.6601 -2.2876,3.8142 -0.0197,6.1292 0.5622,0.5356 1.2284,0.9506 1.9574,1.2193 z"
           fill="#f0f0f0"
           id="path855" />
        <path
           d="M 50.862,59.9453 50.7502,59.8312 C 49.4576,58.4982 48.6679,57.2445 48.3937,56.0866 48.3894,56.0698 48.3862,56.053 48.382,56.0362 l 0.0785,-0.0181 0.0758,-0.0165 c 0.283,1.2631 1.2001,2.5438 2.3272,3.7068 0.036,0.0379 0.0725,0.0763 0.1101,0.1136 0.4815,0.4881 0.9968,0.9542 1.5164,1.3885 0.04,0.034 0.081,0.068 0.122,0.102 0.6888,0.5697 1.3794,1.0825 1.9942,1.5135 0.0433,0.0306 0.0872,0.0607 0.1305,0.0903 1.0436,0.7251 1.8499,1.2012 2.0295,1.3055 0.0217,0.013 0.034,0.0199 0.0367,0.0216 l -0.0388,0.0677 v 0.0011 l -0.0394,0.0683 C 56.7219,64.3788 56.6808,64.356 56.6063,64.3116 56.3266,64.147 55.5743,63.6933 54.6351,63.0431 54.5929,63.0136 54.549,62.9835 54.5057,62.9528 54.0064,62.6036 53.4596,62.2025 52.9059,61.7616 52.7667,61.6511 52.6308,61.5406 52.4982,61.4302 52.4566,61.3968 52.4156,61.3628 52.3757,61.3288 51.8139,60.8594 51.3093,60.3982 50.862,59.9453 Z"
           fill="#ffffff"
           id="path857" />
        <path
           d="m 54.6351,63.0431 c 0.033,-0.0421 0.0665,-0.0847 0.1016,-0.1268 0.0954,-0.1144 0.1966,-0.2239 0.3032,-0.3279 0.4537,-0.4441 1.0015,-0.7809 1.6029,-0.9856 -0.0056,-0.0531 -0.0111,-0.1063 -0.0167,-0.1605 -0.6371,0.2108 -1.2175,0.5642 -1.6969,1.0331 -0.1138,0.1111 -0.2216,0.2281 -0.323,0.3506 -0.0346,0.0415 -0.0681,0.0842 -0.1005,0.1268 -0.2691,0.3503 -0.4833,0.7394 -0.6353,1.154 0.0547,0.0073 0.1084,0.0146 0.1609,0.0219 0.1466,-0.3896 0.3501,-0.7554 0.6038,-1.0856 z"
           fill="#ffffff"
           id="path859" />
        <path
           d="m 52.4982,61.4302 c 0.0368,-0.0403 0.0748,-0.0796 0.1138,-0.1177 0.0114,-0.0122 0.0238,-0.0243 0.0357,-0.0359 0.4923,-0.4806 1.0937,-0.8351 1.7529,-1.0335 0.6592,-0.1984 1.3567,-0.2348 2.033,-0.1059 -0.01,-0.0555 -0.02,-0.1109 -0.0311,-0.1663 -0.6929,-0.122 -1.405,-0.0774 -2.0772,0.13 -0.6722,0.2074 -1.2852,0.5717 -1.7883,1.0627 -0.0158,0.0155 -0.0317,0.0309 -0.047,0.047 -0.039,0.0392 -0.077,0.0784 -0.1143,0.1182 -0.574,0.6207 -0.9568,1.3933 -1.1025,2.2254 0.0508,0.0157 0.1015,0.0313 0.1529,0.0464 0.1382,-0.8122 0.5108,-1.5665 1.0721,-2.1704 z"
           fill="#ffffff"
           id="path861" />
        <path
           d="m 50.862,59.9454 c 0.0363,-0.0421 0.0737,-0.083 0.1116,-0.1234 0.0408,-0.0431 0.0822,-0.0857 0.1246,-0.1271 0.6622,-0.6449 1.5159,-1.0584 2.4333,-1.1785 0.9173,-0.1201 1.849,0.0597 2.6554,0.5123 -0.0193,-0.0706 -0.0381,-0.1406 -0.0586,-0.2101 -0.8286,-0.4283 -1.7712,-0.585 -2.694,-0.448 -0.9229,0.137 -1.779,0.5609 -2.4468,1.2113 -0.0424,0.0414 -0.0843,0.0834 -0.124,0.1266 -0.0391,0.0403 -0.0765,0.0812 -0.1133,0.1227 -0.739,0.8436 -1.1292,1.9359 -1.0916,3.0558 0.0528,0.0302 0.1068,0.0582 0.1614,0.0867 -0.0604,-1.1063 0.3134,-2.1926 1.042,-3.0283 z"
           fill="#ffffff"
           id="path863" />
        <path
           d="m 67.8727,28.2765 0.1446,-2.7469 0.7381,3.0539 c 2.517,0.7569 5.3923,0.7279 5.3923,0.7279 0,0 0.1943,-5.9509 -2.0735,-8.2659 -2.2679,-2.3151 -4.4385,-1.7776 -6.1392,-0.1175 -1.7008,1.6601 -2.2876,3.8142 -0.0198,6.1292 0.5623,0.5356 1.2284,0.9506 1.9575,1.2193 z"
           fill="#f0f0f0"
           id="path865" />
        <path
           d="m 68.3194,25.0936 -0.1118,-0.1141 c -1.2926,-1.333 -2.0823,-2.5867 -2.3565,-3.7446 -0.0043,-0.0168 -0.0075,-0.0336 -0.0117,-0.0504 l 0.0785,-0.0181 0.0758,-0.0165 c 0.283,1.2631 1.2001,2.5439 2.3272,3.7068 0.036,0.0379 0.0725,0.0763 0.1101,0.1136 0.4815,0.4881 0.9968,0.9542 1.5164,1.3886 0.04,0.0339 0.081,0.0679 0.122,0.1019 0.6888,0.5698 1.3794,1.0826 1.9942,1.5135 0.0433,0.0306 0.0872,0.0607 0.1305,0.0903 1.0436,0.7251 1.8499,1.2012 2.0295,1.3055 0.0217,0.0131 0.0339,0.0199 0.0367,0.0216 l -0.0388,0.0677 v 0.0012 l -0.0394,0.0682 C 74.1793,29.5271 74.1382,29.5043 74.0637,29.4599 73.784,29.2953 73.0317,28.8416 72.0925,28.1914 72.0503,28.1619 72.0064,28.1318 71.9631,28.1011 71.4638,27.7519 70.917,27.3508 70.3633,26.9099 70.2241,26.7994 70.0882,26.689 69.9556,26.5785 69.914,26.5451 69.873,26.5111 69.8331,26.4771 69.2713,26.0077 68.7667,25.5465 68.3194,25.0936 Z"
           fill="#ffffff"
           id="path867" />
        <path
           d="m 72.0925,28.1914 c 0.033,-0.0421 0.0665,-0.0847 0.1016,-0.1268 0.0954,-0.1144 0.1966,-0.2239 0.3032,-0.3279 0.4537,-0.4441 1.0015,-0.7809 1.6029,-0.9856 -0.0056,-0.0531 -0.0111,-0.1063 -0.0167,-0.1605 -0.6371,0.2108 -1.2175,0.5642 -1.6969,1.0331 -0.1138,0.1111 -0.2216,0.2281 -0.323,0.3506 -0.0346,0.0415 -0.0681,0.0842 -0.1005,0.1268 -0.2691,0.3503 -0.4833,0.7394 -0.6353,1.154 0.0547,0.0073 0.1084,0.0146 0.1609,0.0219 0.1466,-0.3896 0.3501,-0.7554 0.6038,-1.0856 z"
           fill="#ffffff"
           id="path869" />
        <path
           d="m 69.9556,26.5785 c 0.0369,-0.0403 0.0748,-0.0796 0.1139,-0.1177 0.0113,-0.0122 0.0238,-0.0243 0.0356,-0.0359 0.4923,-0.4805 1.0937,-0.8351 1.7529,-1.0335 0.6592,-0.1984 1.3567,-0.2347 2.0331,-0.1059 -0.0101,-0.0554 -0.0201,-0.1109 -0.0312,-0.1663 -0.6929,-0.122 -1.4049,-0.0774 -2.0771,0.13 -0.6723,0.2074 -1.2853,0.5717 -1.7883,1.0627 -0.0159,0.0155 -0.0317,0.0309 -0.047,0.047 -0.0391,0.0392 -0.077,0.0785 -0.1144,0.1183 -0.574,0.6207 -0.9567,1.3932 -1.1024,2.2253 0.0507,0.0157 0.1015,0.0313 0.1528,0.0464 0.1382,-0.8122 0.5108,-1.5664 1.0721,-2.1704 z"
           fill="#ffffff"
           id="path871" />
        <path
           d="m 68.3194,25.0937 c 0.0363,-0.0421 0.0737,-0.083 0.1116,-0.1234 0.0408,-0.0431 0.0821,-0.0857 0.1246,-0.1271 0.6622,-0.6449 1.5159,-1.0584 2.4333,-1.1785 0.9173,-0.1201 1.849,0.0597 2.6554,0.5123 -0.0193,-0.0706 -0.0381,-0.1406 -0.0586,-0.2101 -0.8286,-0.4283 -1.7712,-0.585 -2.6941,-0.448 -0.9228,0.1371 -1.7789,0.5609 -2.4467,1.2113 -0.0424,0.0414 -0.0843,0.0834 -0.124,0.1266 -0.0391,0.0403 -0.0765,0.0813 -0.1133,0.1228 -0.739,0.8435 -1.1292,1.9358 -1.0916,3.0557 0.0528,0.0302 0.1068,0.0582 0.1614,0.0867 -0.0604,-1.1063 0.3133,-2.1925 1.042,-3.0283 z"
           fill="#ffffff"
           id="path873" />
        <path
           d="m 28.0999,153.26 -5.9725,5.488 4.7465,-7.949 c -3.7395,-6.77 -9.8555,-12.62 -9.8555,-12.62 0,0 -12.68847,12.135 -12.68847,21.673 0,9.539 5.68077,12.87 12.68847,12.87 7.0076,0 12.6884,-3.331 12.6884,-12.87 0,-2.123 -0.6296,-4.374 -1.6069,-6.592 z"
           fill="#f0f0f0"
           id="path875" />
        <path
           d="m 20.5915,159.046 v 0.47 c -0.028,5.465 -0.9514,9.729 -2.7632,12.732 -0.0257,0.044 -0.0536,0.086 -0.0793,0.13 l -0.2029,-0.123 -0.1935,-0.122 c 2.01,-3.242 2.7212,-7.825 2.7469,-12.592 0.0023,-0.153 0.0046,-0.309 0.0023,-0.465 -0.007,-2.018 -0.1306,-4.06 -0.3288,-6.043 -0.014,-0.153 -0.0303,-0.309 -0.0466,-0.465 -0.2752,-2.616 -0.6716,-5.116 -1.0773,-7.288 -0.028,-0.153 -0.0583,-0.307 -0.0886,-0.458 -0.7019,-3.673 -1.4178,-6.334 -1.581,-6.923 -0.0186,-0.072 -0.0303,-0.111 -0.0326,-0.121 l 0.2215,-0.062 0.0023,-0.003 0.2239,-0.063 c 0.0023,0.01 0.042,0.142 0.1072,0.389 0.2495,0.922 0.8978,3.424 1.5344,6.724 0.0279,0.149 0.0583,0.303 0.0863,0.457 0.3311,1.762 0.6552,3.731 0.9117,5.798 0.0653,0.519 0.1236,1.031 0.1749,1.536 0.0186,0.156 0.0349,0.312 0.0489,0.465 0.2146,2.144 0.3257,4.153 0.3335,6.027 z"
           fill="#ffffff"
           id="path877" />
        <path
           d="m 19.0361,144.764 c -0.1562,0.02 -0.3147,0.041 -0.4756,0.058 -0.437,0.045 -0.8759,0.067 -1.3152,0.067 -1.8719,0.003 -3.7206,-0.414 -5.4097,-1.219 -0.098,0.123 -0.1959,0.246 -0.2962,0.372 1.777,0.866 3.7286,1.315 5.7059,1.313 0.4689,0 0.9375,-0.025 1.4038,-0.075 0.1585,-0.016 0.3171,-0.037 0.4733,-0.06 1.2896,-0.185 2.5437,-0.564 3.7192,-1.124 -0.1002,-0.129 -0.1982,-0.254 -0.2938,-0.378 -1.1126,0.52 -2.2959,0.872 -3.5117,1.046 z"
           fill="#ffffff"
           id="path879" />
        <path
           d="m 20.209,152.554 c -0.1608,0.009 -0.3217,0.014 -0.4826,0.014 -0.049,0.002 -0.1003,0.002 -0.1493,0.002 -2.0283,0 -4.0266,-0.489 -5.8245,-1.427 -1.7978,-0.937 -3.342,-2.295 -4.50067,-3.956 -0.09327,0.137 -0.18655,0.274 -0.27747,0.414 1.20774,1.681 2.79944,3.051 4.64324,3.996 1.8438,0.946 3.8867,1.439 5.9594,1.439 0.0653,0 0.1306,0 0.1959,-0.003 0.1632,-0.002 0.3241,-0.007 0.485,-0.014 2.4897,-0.127 4.8899,-0.967 6.9138,-2.42 -0.0746,-0.138 -0.1493,-0.275 -0.2262,-0.412 -1.9669,1.426 -4.3081,2.249 -6.7366,2.367 z"
           fill="#ffffff"
           id="path881" />
        <path
           d="m 20.5915,159.046 c -0.1632,0.013 -0.3265,0.023 -0.4897,0.03 -0.1749,0.007 -0.3498,0.011 -0.5247,0.011 -2.7255,-0.003 -5.3768,-0.887 -7.5567,-2.52 -2.18,-1.633 -3.77139,-3.927 -4.53595,-6.539 -0.10493,0.189 -0.20987,0.375 -0.31013,0.564 0.86145,2.605 2.5235,4.873 4.74998,6.482 2.2265,1.609 4.9043,2.476 7.6528,2.479 0.1749,0 0.3498,-0.002 0.5224,-0.012 0.1655,-0.004 0.3288,-0.014 0.492,-0.025 3.2969,-0.258 6.3726,-1.756 8.6043,-4.192 -0.049,-0.173 -0.1049,-0.342 -0.1609,-0.515 -2.1556,2.455 -5.1842,3.974 -8.4434,4.237 z"
           fill="#ffffff"
           id="path883" />
        <path
           d="m 181.496,106.592 c 8.655,-7.5601 12.473,-17.3371 8.528,-21.838 -3.946,-4.5008 -14.16,-2.0211 -22.816,5.5387 -8.655,7.5598 -12.473,17.3373 -8.527,21.8373 3.945,4.501 14.16,2.022 22.815,-5.538 z"
           fill="#e4e4e4"
           id="path885" />
        <path
           d="m 53.6067,112.131 c 3.9455,-4.501 0.1275,-14.2784 -8.5278,-21.8382 -8.6552,-7.5598 -18.87,-10.0396 -22.8155,-5.5387 -3.9455,4.5008 -0.1275,14.2779 8.5277,21.8379 8.6552,7.56 18.8701,10.039 22.8156,5.539 z"
           fill="#e4e4e4"
           id="path887" />
        <path
           d="m 73.0993,172.502 c 11.5009,0 20.8242,-4.848 20.8242,-10.829 0,-5.98 -9.3233,-10.829 -20.8242,-10.829 -11.5009,0 -20.8242,4.849 -20.8242,10.829 0,5.981 9.3233,10.829 20.8242,10.829 z"
           fill="#e4e4e4"
           id="path889" />
        <path
           d="m 139.188,172.502 c 11.501,0 20.824,-4.848 20.824,-10.829 0,-5.98 -9.323,-10.829 -20.824,-10.829 -11.501,0 -20.824,4.849 -20.824,10.829 0,5.981 9.323,10.829 20.824,10.829 z"
           fill="#e4e4e4"
           id="path891" />
        <path
           d="m 106.144,157.566 c -28.1909,0 -51.1256,-22.893 -51.1256,-51.033 0,-28.1398 22.9347,-51.033 51.1256,-51.033 28.19,0 51.125,22.8932 51.125,51.033 0,28.14 -22.935,51.033 -51.125,51.033 z m 0,-101.5681 c -27.9159,0 -50.6268,22.6699 -50.6268,50.5351 0,27.865 22.7109,50.535 50.6268,50.535 27.915,0 50.626,-22.67 50.626,-50.535 0,-27.8652 -22.711,-50.5351 -50.626,-50.5351 z"
           fill="#3f3d56"
           id="path893" />
        <path
           d="M 93.6807,140.523 C 83.3668,136.981 74.6928,129.82 69.2715,120.373 63.8503,110.925 62.0508,99.8337 64.2077,89.1611 c -2.8615,5.723 -4.4654,11.9899 -4.7044,18.3819 -0.2391,6.392 0.8922,12.761 3.3182,18.681 2.4259,5.92 6.0906,11.254 10.7487,15.646 4.6582,4.392 10.2024,7.741 16.2616,9.822 6.0593,2.08 12.4942,2.845 18.8732,2.243 6.379,-0.602 12.556,-2.557 18.117,-5.735 5.561,-3.177 10.379,-7.504 14.129,-12.689 3.751,-5.186 6.349,-11.112 7.621,-17.381 -4.878,9.738 -13.132,17.377 -23.229,21.496 -10.096,4.119 -21.348,4.438 -31.6623,0.897 z"
           fill="#f0f0f0"
           id="path895" />
        <path
           d="M 88.6936,103.193 C 86.1055,103.193 84,100.458 84,97.0966 84,93.7349 86.1055,91 88.6936,91 c 2.588,0 4.6935,2.7349 4.6935,6.0966 0,3.3614 -2.1055,6.0964 -4.6935,6.0964 z"
           fill="#3f3d56"
           id="path897" />
        <path
           d="m 102.902,8.94805 c 2.479,0 4.489,-1.44891 4.489,-3.23623 0,-1.78732 -2.01,-3.23623 -4.489,-3.23623 -2.48,0 -4.4895,1.44891 -4.4895,3.23623 0,1.78732 2.0095,3.23623 4.4895,3.23623 z"
           fill="#2f2e41"
           id="path899" />
        <path
           d="m 102.902,3.95539 c 1.515,0 2.743,-0.88544 2.743,-1.9777 C 105.645,0.885444 104.417,0 102.902,0 c -1.516,0 -2.744,0.885444 -2.744,1.97769 0,1.09226 1.228,1.9777 2.744,1.9777 z"
           fill="#2f2e41"
           id="path901" />
        <path
           d="M 99.6733,7.00498 C 98.1292,5.46362 97.6405,3.38545 98.4107,2.0481 c -0.183,0.10412 -0.3514,0.23195 -0.5009,0.38016 -1.2661,1.26382 -0.8713,3.70698 0.8818,5.45686 1.7534,1.74996 4.2004,2.14398 5.4664,0.88013 0.149,-0.14916 0.277,-0.31728 0.381,-0.49997 -1.34,0.76887 -3.422,0.28106 -4.9657,-1.2603 z"
           fill="#2f2e41"
           id="path903" />
        <path
           d="m 56.6927,87.1074 -1.5766,-2.6149 9.3536,-7.3151 2.3271,3.859 z"
           fill="#ffb6b6"
           id="path905" />
        <path
           d="m 54.5557,89.2999 -5.0841,-8.4312 0.1068,-0.0642 c 0.8719,-0.5239 1.9166,-0.6805 2.9042,-0.4356 0.9877,0.245 1.8374,0.8715 2.3623,1.7418 l 3.1054,5.1497 z"
           fill="#2f2e41"
           id="path907" />
        <path
           d="m 155.234,83.6221 1.577,-2.6148 -9.354,-7.3152 -2.327,3.8591 z"
           fill="#ffb6b6"
           id="path909" />
        <path
           d="m 153.976,83.7752 3.105,-5.1495 0.001,-3e-4 c 0.525,-0.8702 1.374,-1.4968 2.362,-1.7417 0.988,-0.245 2.032,-0.0883 2.904,0.4355 l 0.107,0.0642 -5.084,8.4313 z"
           fill="#2f2e41"
           id="path911" />
        <path
           d="M 94.1032,48.7262 93.5077,51.1001 77.4394,63.9402 60.1465,80.0718 62.0013,84.377 103.22,56.8394 149.689,80.8836 151.766,76.1376 130.56,61.9487 113.023,49.877 Z"
           fill="#2f2e41"
           id="path913" />
        <path
           d="m 99.5139,23.3278 -6.9451,2.2745 0.9389,25.2528 c 0,0 12.0783,7.2389 19.5153,-0.9781 V 24.6188 l -4.148,-1.291 z"
           fill="#1c241f"
           id="path915" />
        <path
           d="m 111.481,26.355 1.542,-1.7362 c 0,0 4.286,1.5627 3.928,6.2524 -0.357,4.6897 -2.876,19.6055 -2.876,19.6055 l -0.474,9.7293 h -4.474 l 1.783,-25.1613 z"
           fill="#1c241f"
           id="path917" />
        <path
           d="m 94.5227,27.1018 -1.5415,-1.7362 c 0,0 -4.2859,1.5627 -3.9285,6.2524 0.3575,4.6897 2.8763,19.6055 2.8763,19.6055 l 0.4738,9.7293 h 4.4741 L 95.0938,35.7915 Z"
           fill="#1c241f"
           id="path919" />
        <path
           d="m 94.6717,64.9597 c 1.515,0 2.7433,-1.226 2.7433,-2.7383 0,-1.5124 -1.2283,-2.7384 -2.7433,-2.7384 -1.5151,0 -2.7434,1.226 -2.7434,2.7384 0,1.5123 1.2283,2.7383 2.7434,2.7383 z"
           fill="#ffb6b6"
           id="path921" />
        <path
           d="m 111.381,64.9597 c 1.515,0 2.743,-1.226 2.743,-2.7383 0,-1.5124 -1.228,-2.7384 -2.743,-2.7384 -1.515,0 -2.743,1.226 -2.743,2.7384 0,1.5123 1.228,2.7383 2.743,2.7383 z"
           fill="#ffb6b6"
           id="path923" />
        <path
           d="m 102.786,21.2543 c 4.196,0 7.597,-3.3954 7.597,-7.5838 0,-4.18843 -3.401,-7.58383 -7.597,-7.58383 -4.1963,0 -7.5978,3.3954 -7.5978,7.58383 0,4.1884 3.4015,7.5838 7.5978,7.5838 z"
           fill="#2f2e41"
           id="path925" />
        <path
           d="m 103.015,21.5046 c 3.383,0 6.125,-2.7374 6.125,-6.1142 0,-3.3768 -2.742,-6.11428 -6.125,-6.11428 -3.3833,0 -6.1257,2.73748 -6.1257,6.11428 0,3.3768 2.7424,6.1142 6.1257,6.1142 z"
           fill="#ffb6b6"
           id="path927" />
        <path
           d="m 96.5784,11.5445 c 1.3997,0.963 3.0611,1.4755 4.7606,1.4688 -0.606,0.4197 -1.296,0.7032 -2.023,0.8309 2.26,0.484 4.596,0.4971 6.862,0.0385 0.503,-0.0806 0.989,-0.2472 1.436,-0.4925 0.223,-0.1241 0.417,-0.2937 0.57,-0.4976 0.152,-0.2039 0.26,-0.4377 0.317,-0.686 0.15,-0.8585 -0.52,-1.6384 -1.216,-2.1641 -1.067,-0.79248 -2.296,-1.3385 -3.6,-1.59853 -1.303,-0.26003 -2.648,-0.22757 -3.938,0.09504 -0.842,0.21726 -1.6855,0.58433 -2.2324,1.25931 -0.5469,0.67498 -0.7089,1.71558 -0.1878,2.41058 z"
           fill="#2f2e41"
           id="path929" />
        <path
           d="M 204.751,173 H 0.249392 C 0.183249,173 0.119815,172.974 0.073045,172.927 0.0262749,172.88 0,172.817 0,172.751 c 0,-0.066 0.0262749,-0.129 0.073045,-0.176 0.04677,-0.047 0.110204,-0.073 0.176347,-0.073 H 204.751 c 0.066,0 0.129,0.026 0.176,0.073 0.047,0.047 0.073,0.11 0.073,0.176 0,0.066 -0.026,0.129 -0.073,0.176 -0.047,0.047 -0.11,0.073 -0.176,0.073 z"
           fill="#3f3d56"
           id="path931" />
        <path
           d="m 138.07729,117.02071 c 3.306,0 5.986,-2.675 5.986,-5.974 0,-3.3 -2.68,-5.975 -5.986,-5.975 -3.305,0 -5.985,2.675 -5.985,5.975 0,3.299 2.68,5.974 5.985,5.974 z"
           fill="#f0f0f0"
           id="path933" />
        <path
           d="m 79.4892,117.735 c 3.3056,0 5.9854,-2.675 5.9854,-5.974 0,-3.3 -2.6798,-5.975 -5.9854,-5.975 -3.3057,0 -5.9854,2.675 -5.9854,5.975 0,3.299 2.6797,5.974 5.9854,5.974 z"
           fill="#f0f0f0"
           id="path935" />
        <path
           d="m 100.31055,127.44536 c -1.513307,0.14943 -3.752867,0.35862 -5.885942,-0.56895 -1.812292,-0.73346 -3.290694,-2.13522 -4.359944,-3.39572 -1.050991,-1.23898 -1.619066,-2.18424 -1.619066,-2.18424 0,0 0.190564,1.07895 0.818754,2.66023 0.637472,1.60465 1.732674,3.6142 3.722087,5.23809 2.545626,1.98314 5.604742,2.47671 7.756471,2.22716 2.15643,-0.23446 4.3526,-0.91336 6.48011,-1.86095 4.01829,-1.80783 8.28291,-5.1107 12.18766,-9.43977 3.57764,-3.96641 5.88703,-7.61104 5.88703,-7.61104 0,0 -3.10783,3.01026 -7.24611,6.13177 -4.82582,3.64011 -8.52901,5.5356 -12.45606,7.26509 -1.86115,0.82896 -3.62936,1.35832 -5.28499,1.53833 z"
           stroke="#3f3d56"
           stroke-width="4"
           stroke-linecap="round"
           id="path937"
           inkscape:path-effect="#path-effect2005"
           inkscape:original-d="m 88.445598,121.29645 c 7.800954,18.31953 27.818152,1.77604 36.852112,-8.78628"
           style="fill:#3f3d56;fill-rule:nonzero;stroke:none;stroke-width:3.99874;stroke-miterlimit:4;stroke-dasharray:none" />
        <path
           d="m 125.90069,94.218192 c -2.02678,-0.869134 -4.2322,-1.148305 -6.24448,-0.733246 0,0 0,1e-6 0,1e-6 -1.95013,0.427004 -3.22859,1.5464 -3.92353,2.398266 -0.70875,0.868787 -0.91111,1.49233 -0.91111,1.49233 0,0 0.48863,-0.442022 1.39438,-0.908288 0.90638,-0.466586 2.21575,-0.910268 3.64972,-0.807894 0,0 0,0 0,0 1.58984,0.06987 3.12517,0.623919 4.88285,1.328763 1.83764,0.76437 3.51416,1.853383 4.70897,2.81575 0.12966,0.10445 1.24408,-0.918531 1.24408,-0.918531 0,0 0.81398,-1.275918 0.63777,-1.417842 -1.37582,-1.108164 -3.30842,-2.36323 -5.43865,-3.249309 z"
           stroke="#3f3d56"
           stroke-width="3"
           stroke-linecap="round"
           id="path939"
           inkscape:path-effect="#path-effect2011"
           inkscape:original-d="m 114.82157,97.375543 c 4.398,-5.7904 12.419,-1.4061 15.88,1.5098"
           style="fill:#3f3d56;fill-rule:nonzero;stroke:none" />
        <path
           d="m 125.66004,112.33644 c 0.78395,0.27631 1.37297,0.94332 1.86227,2.36705 0.43525,1.26644 0.57288,2.35217 0.57288,2.35217 0,0 0.24559,-1.06374 0.12093,-2.49548 -0.13655,-1.56826 -0.8081,-2.81187 -1.97559,-3.45516 -0.60824,-0.28672 -1.26745,-0.37356 -1.92808,-0.32887 -1.34258,0.11138 -2.75034,0.77627 -4.06199,1.8743 -1.19347,0.99909 -1.94788,1.97557 -1.94788,1.97557 0,0 1.00578,-0.72419 2.3305,-1.4011 1.52511,-0.7793 2.64303,-1.03576 3.77127,-1.09049 0.47909,-0.0324 0.89877,0.0338 1.25569,0.20201 z"
           stroke="#3f3d56"
           stroke-width="4"
           stroke-linecap="round"
           id="path2007"
           inkscape:path-effect="#path-effect2009"
           inkscape:original-d="m 128.09519,117.05566 c -0.12161,-8.82674 -6.57896,-5.29769 -9.79261,-2.42964"
           style="fill:#3f3d56;fill-rule:nonzero;stroke:none;stroke-width:1.36095;stroke-miterlimit:4;stroke-dasharray:none" />
      </g>
    </g>
  </g>
</svg>
