<svg width="134" height="134" viewBox="0 0 134 134" fill="none" xmlns="http://www.w3.org/2000/svg">
<g clip-path="url(#clip0_95_937)">
<circle cx="67" cy="67" r="67" fill="white"/>
<path d="M68.199 87.4736C80.211 87.4736 89.9486 77.736 89.9486 65.724C89.9486 53.7121 80.211 43.9745 68.199 43.9745C56.1871 43.9745 46.4495 53.7121 46.4495 65.724C46.4495 77.736 56.1871 87.4736 68.199 87.4736Z" fill="#FFB6B6"/>
<path d="M55.7131 90.6898L54.7305 80.7573L74.3522 77.0883L85.9387 105.299L65.7883 128.472L51.4312 100.261L55.7131 90.6898Z" fill="#FFB6B6"/>
<path d="M54.4155 85.7291L58.7053 86.6983C58.7053 86.6983 55.3331 76.0049 56.4777 74.984C57.6223 73.9631 60.4272 75.5717 60.4272 75.5717L63.3747 78.8764L66.965 75.221C66.965 75.221 70.8628 70.3743 72.3889 69.0131C73.9151 67.6519 71.4637 62.5993 71.4637 62.5993C71.4637 62.5993 94.1057 56.4939 85.6806 45.5119C85.6806 45.5119 80.741 36.9015 79.1324 39.7064C77.5238 42.5112 75.6057 38.0565 75.6057 38.0565L69.7485 39.1703C69.7485 39.1703 58.1887 32.3544 47.217 46.9357C36.2454 61.517 54.4155 85.7291 54.4155 85.7291Z" fill="#2F2E41"/>
<path d="M109.104 119.127C97.2181 128.763 82.5134 134 67.0001 134C52.8344 134 39.3412 129.632 28.0544 121.537C28.0746 121.325 28.0948 121.116 28.1124 120.907C28.4121 117.633 28.6791 114.449 28.8554 111.809C29.538 101.56 53.449 94.7294 53.449 94.7294C53.449 94.7294 53.5573 94.8378 53.7739 95.0267C55.0937 96.1853 60.4512 100.387 69.8463 101.56C78.2238 102.608 80.9819 97.6387 81.8156 95.2584C82.0675 94.533 82.1431 94.0468 82.1431 94.0468L106.737 105.661C108.341 107.953 108.968 112.89 109.092 118.439C109.097 118.668 109.102 118.895 109.104 119.127Z" fill="#1C241F"/>
</g>
<defs>
<clipPath id="clip0_95_937">
<rect width="134" height="134" fill="white"/>
</clipPath>
</defs>
</svg>
